<svg width="244" height="35" viewBox="0 0 244 35" fill="none" xmlns="http://www.w3.org/2000/svg">
<path d="M144.26 8.542C145.806 8.542 147.145 8.79971 148.275 9.31514C149.423 9.83057 150.304 10.5621 150.919 11.5099C151.534 12.4576 151.842 13.5799 151.842 14.8768C151.842 16.157 151.534 17.2793 150.919 18.2437C150.304 19.1914 149.423 19.923 148.275 20.4384C147.145 20.9372 145.806 21.1866 144.26 21.1866H140.744V26H136.703V8.542H144.26ZM144.036 17.8945C145.249 17.8945 146.172 17.6368 146.804 17.1214C147.436 16.5893 147.752 15.8411 147.752 14.8768C147.752 13.8958 147.436 13.1476 146.804 12.6322C146.172 12.1001 145.249 11.8341 144.036 11.8341H140.744V17.8945H144.036ZM173.078 22.259H164.973L163.427 26H159.286L167.068 8.542H171.058L178.864 26H174.625L173.078 22.259ZM171.806 19.1914L169.038 12.5075L166.27 19.1914H171.806ZM195.715 19.8149V26H191.675V19.765L184.916 8.542H189.206L193.87 16.2983L198.533 8.542H202.499L195.715 19.8149Z" fill="#023365"/>
<path d="M39.1284 10.5052V19.0911C39.1544 20.1193 38.967 21.1416 38.5779 22.093C38.1888 23.0443 37.6066 23.9038 36.8685 24.6167C36.1984 25.3009 35.3974 25.8419 34.5137 26.2071C33.6301 26.5724 32.682 26.7543 31.7265 26.7419C30.709 26.7693 29.6966 26.5887 28.7509 26.2109C27.8051 25.8331 26.9456 25.2662 26.2248 24.5444C25.5061 23.8544 24.9376 23.0222 24.5552 22.1005C24.1728 21.1787 23.9847 20.1873 24.003 19.1889V10.0291C23.9849 9.71127 24.0302 9.39299 24.1363 9.09299C24.2424 8.79299 24.4071 8.51732 24.6209 8.28218C24.821 8.0757 25.0616 7.91318 25.3275 7.8049C25.5934 7.69662 25.8788 7.64493 26.1656 7.65311C26.4398 7.64483 26.7128 7.69255 26.9682 7.79337C27.2235 7.8942 27.4558 8.04603 27.651 8.23967C27.8719 8.4798 28.0429 8.76172 28.154 9.06896C28.2652 9.3762 28.3143 9.7026 28.2985 10.0291V19.1974C28.2849 19.6436 28.3615 20.088 28.5237 20.5037C28.6859 20.9194 28.9304 21.2977 29.2423 21.6159C29.5563 21.9364 29.9333 22.1877 30.3494 22.3538C30.7654 22.5199 31.2114 22.5972 31.6588 22.5807C32.4549 22.5917 33.2232 22.2861 33.796 21.7306C34.1392 21.3882 34.4079 20.9779 34.5849 20.5258C34.762 20.0736 34.8435 19.5894 34.8244 19.1038V10.0291C34.8052 9.71254 34.8483 9.39526 34.9515 9.09549C35.0546 8.79571 35.2156 8.51932 35.4253 8.28218C35.6227 8.07563 35.8611 7.91293 36.1249 7.80458C36.3888 7.69622 36.6724 7.64463 36.9573 7.65311C37.339 7.63058 37.7191 7.71877 38.0523 7.90718C38.3854 8.09559 38.6576 8.37626 38.8364 8.71572C39.0688 9.28189 39.1687 9.8941 39.1284 10.5052Z" fill="#023365"/>
<path d="M51.0585 7.5297C52.5662 7.48585 54.0549 7.87515 55.3498 8.65182C56.429 9.3574 56.9665 10.1352 56.9665 10.9768C56.9857 11.2653 56.9477 11.5547 56.8547 11.8283C56.7617 12.1019 56.6156 12.3543 56.4248 12.5707C56.2504 12.7538 56.0399 12.8983 55.8067 12.9949C55.5734 13.0915 55.3227 13.1382 55.0705 13.1318C54.7159 13.1155 54.3754 12.9876 54.0971 12.7663C53.7586 12.524 53.4369 12.2732 53.1195 12.0097C52.5323 11.4841 51.7882 11.1687 51.0035 11.1128C50.4493 11.0935 49.9062 11.2727 49.4715 11.6186C49.2851 11.7535 49.1326 11.9301 49.0261 12.1345C48.9195 12.3388 48.8619 12.5654 48.8579 12.796C48.8579 13.6461 49.6112 14.2412 51.122 14.6152C53.475 15.1933 55.1298 15.8904 56.1032 16.6894C57.274 17.6415 57.8609 18.9861 57.8637 20.7231C57.8832 21.5363 57.7273 22.3441 57.4066 23.091C57.0859 23.8379 56.608 24.5062 56.0058 25.0501C54.7093 26.2191 53.0113 26.8364 51.2701 26.7715C49.4513 26.8326 47.6595 26.3165 46.1493 25.2966C44.8797 24.404 44.2195 23.3839 44.2195 22.2448C44.2124 21.7024 44.4176 21.1789 44.7908 20.7869C44.9684 20.5891 45.186 20.4318 45.429 20.3255C45.6721 20.2192 45.935 20.1664 46.2001 20.1706C46.8688 20.1706 47.6122 20.5347 48.4304 21.2629C49.5096 22.2193 50.466 22.6911 51.304 22.6911C51.9025 22.7168 52.4873 22.5062 52.9333 22.1045C53.1402 21.9123 53.3035 21.6778 53.4123 21.4167C53.5211 21.1557 53.5728 20.8742 53.5639 20.5914C53.5639 19.9198 53.1788 19.4055 52.417 19.0527C51.478 18.6806 50.5186 18.3627 49.5434 18.1006C47.8732 17.5962 46.6741 17.0295 45.9462 16.4004C45.5033 15.9831 45.1567 15.4735 44.9308 14.9074C44.7049 14.3413 44.6051 13.7323 44.6385 13.1233C44.6144 12.3574 44.7625 11.5959 45.0717 10.8954C45.3808 10.1949 45.8432 9.57329 46.4244 9.07687C47.615 8.04542 49.1597 7.5297 51.0585 7.5297Z" fill="#023365"/>
<path d="M66.9966 10.0246V15.0188H73.8864V10.0246C73.8679 9.70732 73.9131 9.38958 74.0192 9.09021C74.1254 8.79085 74.2903 8.51596 74.5043 8.28187C74.7041 8.07497 74.9447 7.91218 75.2107 7.80386C75.4766 7.69555 75.7622 7.6441 76.049 7.6528C76.3333 7.64439 76.6162 7.69603 76.8794 7.8044C77.1426 7.91276 77.3802 8.07543 77.5768 8.28187C77.9995 8.76131 78.2156 9.38955 78.1778 10.0288V24.2636C78.1961 24.5837 78.1514 24.9043 78.0461 25.207C77.9408 25.5097 77.777 25.7886 77.5641 26.0275C77.3694 26.233 77.134 26.3951 76.873 26.5035C76.612 26.6119 76.3313 26.664 76.049 26.6566C75.7634 26.6619 75.4797 26.6076 75.216 26.4971C74.9523 26.3866 74.7143 26.2224 74.517 26.0148C74.2998 25.7772 74.1321 25.4983 74.0238 25.1947C73.9156 24.891 73.8688 24.5687 73.8864 24.2466V18.942H66.9966V24.2593C67.0152 24.5805 66.9702 24.9021 66.8641 25.2056C66.7581 25.5091 66.5931 25.7885 66.3787 26.0275C66.1841 26.233 65.9486 26.3951 65.6876 26.5035C65.4267 26.6119 65.146 26.664 64.8637 26.6566C64.5789 26.6638 64.2957 26.6116 64.032 26.5033C63.7683 26.395 63.5299 26.233 63.3317 26.0275C63.1138 25.7913 62.9456 25.5132 62.8373 25.2101C62.7289 24.907 62.6826 24.5851 62.7011 24.2636V10.0288C62.6837 9.70998 62.7306 9.39092 62.8389 9.09073C62.9473 8.79055 63.1149 8.51543 63.3317 8.28187C63.531 8.07551 63.7709 7.91302 64.0361 7.80473C64.3013 7.69644 64.586 7.6447 64.8721 7.6528C65.147 7.64444 65.4207 7.6921 65.6768 7.79291C65.9328 7.89373 66.1658 8.0456 66.3618 8.23936C66.5805 8.4796 66.7492 8.76122 66.8582 9.06775C66.9672 9.37427 67.0143 9.69955 66.9966 10.0246Z" fill="#023365"/>
<path d="M97.3405 11.657L92.042 16.8808L98.1489 22.5381C98.9445 23.2862 99.3465 23.9663 99.3465 24.5826C99.3538 24.8623 99.3017 25.1404 99.1937 25.3984C99.0857 25.6564 98.9243 25.8883 98.7202 26.0788C98.5158 26.2724 98.2751 26.4233 98.0121 26.5226C97.749 26.6218 97.469 26.6675 97.1882 26.6568C96.6239 26.6568 95.975 26.3111 95.2414 25.6197L88.1654 18.9125V24.2596C88.1831 24.5806 88.1376 24.902 88.0316 25.2054C87.9256 25.5088 87.7611 25.7882 87.5475 26.0278C87.3529 26.2332 87.1174 26.3954 86.8564 26.5037C86.5955 26.6121 86.3148 26.6642 86.0325 26.6568C85.7463 26.6647 85.4617 26.6128 85.1965 26.5045C84.9314 26.3963 84.6915 26.2339 84.492 26.0278C84.2748 25.7902 84.1071 25.5113 83.9988 25.2076C83.8905 24.904 83.8438 24.5816 83.8614 24.2596V10.0035C83.8316 9.35117 84.058 8.71314 84.492 8.22683C84.688 8.01305 84.9272 7.84371 85.1936 7.7301C85.46 7.6165 85.7474 7.56124 86.0367 7.56801C86.3134 7.56104 86.5885 7.61227 86.8443 7.71841C87.1001 7.82455 87.331 7.98325 87.5221 8.18433C87.9652 8.68315 88.1974 9.33565 88.1696 10.0035V14.9341L94.3696 8.66038C95.0721 7.9548 95.745 7.56801 96.3418 7.56801C96.6207 7.56303 96.8978 7.6151 97.156 7.72105C97.4143 7.82701 97.6484 7.98463 97.8441 8.18433C98.0399 8.37523 98.1952 8.60393 98.3006 8.85667C98.4061 9.1094 98.4595 9.38096 98.4578 9.65499C98.4578 10.2642 98.0854 10.9315 97.3405 11.657Z" fill="#023365"/>
<path d="M103.24 24.2636V10.0288C103.221 9.71084 103.266 9.3923 103.372 9.09216C103.478 8.79202 103.643 8.51644 103.858 8.28184C104.261 7.88619 104.801 7.6612 105.365 7.65329C105.928 7.64538 106.474 7.85516 106.888 8.23933C107.33 8.72659 107.562 9.37024 107.531 10.0288V24.2636C107.569 24.9094 107.35 25.5439 106.922 26.0275C106.726 26.234 106.49 26.3968 106.227 26.5052C105.964 26.6136 105.682 26.6652 105.398 26.6566C105.113 26.6615 104.83 26.607 104.568 26.4966C104.305 26.3861 104.067 26.222 103.871 26.0148C103.654 25.78 103.487 25.5041 103.379 25.2033C103.27 24.9025 103.223 24.583 103.24 24.2636Z" fill="#023365"/>
<path d="M3.23624 26.4994C2.95431 26.4999 2.67504 26.4446 2.41447 26.3365C2.15389 26.2284 1.91714 26.0697 1.71779 25.8694C1.51843 25.6692 1.3604 25.4314 1.25277 25.1697C1.14514 24.908 1.09002 24.6275 1.09058 24.3444V9.97359C1.09058 9.40205 1.31664 8.85392 1.71903 8.44978C2.12142 8.04565 2.66717 7.8186 3.23624 7.8186C3.8053 7.8186 4.35106 8.04565 4.75344 8.44978C5.15583 8.85392 5.38189 9.40205 5.38189 9.97359V24.3444C5.38245 24.6275 5.32733 24.908 5.2197 25.1697C5.11207 25.4314 4.95404 25.6692 4.75469 25.8694C4.55533 26.0697 4.31858 26.2284 4.058 26.3365C3.79743 26.4446 3.51817 26.4999 3.23624 26.4994Z" fill="#023365"/>
<path d="M23.017 33.3682C22.4613 33.3683 21.9273 33.152 21.5273 32.7647L6.74892 18.4491C6.34158 18.0532 6.10639 17.5118 6.0945 16.9427C6.08261 16.3735 6.29499 15.8227 6.68544 15.41L13.9434 7.7592C14.3427 7.37393 14.8745 7.15821 15.4282 7.15699C15.9819 7.15576 16.5147 7.36913 16.9156 7.75263C17.3166 8.13614 17.5547 8.66022 17.5805 9.21569C17.6063 9.77117 17.4177 10.3152 17.054 10.7345L11.2772 16.8339L24.5236 29.6618C24.8318 29.9602 25.0441 30.3444 25.1331 30.765C25.2222 31.1856 25.1839 31.6233 25.0233 32.0219C24.8626 32.4204 24.5869 32.7616 24.2317 33.0015C23.8764 33.2415 23.4578 33.3692 23.0297 33.3682H23.017Z" fill="#00E6B2"/>
<line x1="122.106" y1="1.51831" x2="122.106" y2="34.8023" stroke="#E2E8F0" stroke-width="1.40843"/>
</svg>
